<svg xmlns="http://www.w3.org/2000/svg" aria-hidden="true" style="position:absolute;width:0;height:0;overflow:hidden">
    <defs>
        <symbol id="icon-antenna" viewBox="0 0 40 40">
            <path fill="#2e2f42" d="M38.466 27.622 27.912 16.991l1.171-5.769c.302.118.624.18.948.182h.008a2.698 2.698 0 1 0 .063-5.397 2.698 2.698 0 0 0-2.574 3.603l-6.2.757L11.215.201a.662.662 0 0 0-.471-.2.67.67 0 0 0-.467.194l-1.891 1.88a.668.668 0 0 0 0 .943L9.403 4.05a18.68 18.68 0 0 0 3.149 22.079.63.63 0 0 0 .183.122 3.828 3.828 0 0 0-.065.684v7.733h-8a3.337 3.337 0 0 0-3.333 3.333v1.333c0 .368.299.667.667.667h30.667a.667.667 0 0 0 .667-.667v-1.333a3.337 3.337 0 0 0-3.333-3.333h-8v-3.427c1.253.263 2.53.397 3.811.4a18.558 18.558 0 0 0 8.8-2.229l1.023 1.029a.662.662 0 0 0 .471.2.67.67 0 0 0 .467-.194l1.891-1.88a.668.668 0 0 0 0-.943zM29.1 7.791a1.334 1.334 0 1 1 .94 2.279h-.004a1.333 1.333 0 0 1-.933-2.278H29.1zm-1.57 4.381-.748 3.682-1.469-1.478 2.217-2.204zm-.757-1.127-2.4 2.386-1.857-1.867 4.257-.519zM30.005 36a2 2 0 0 1 2 2v.667H2.672V38a2 2 0 0 1 2-2h25.333zm-9.333-2.667v1.333h-6.667v-1.333h6.667zM14.005 32v-5.067c0-1.617 1.495-2.933 3.333-2.933s3.333 1.316 3.333 2.933V32h-6.667zm8-2.12v-2.947c0-2.353-2.093-4.267-4.667-4.267a4.746 4.746 0 0 0-4.101 2.233A17.337 17.337 0 0 1 10.389 5.04l23.252 23.386a17.278 17.278 0 0 1-11.636 1.454zm14.111-.855L9.795 2.549l.943-.94 9.919 9.975c.005 0 .007.009.012.012l16.393 16.489-.946.94z" style="fill:var(--color1, #2e2f42)"/>
            <path fill="#4d5ae5" d="M17.344 25.333h-.006a2 2 0 1 0-.006 4h.006a2 2 0 1 0 .006-4zm.467 2.473a.666.666 0 1 1-.473-1.139.667.667 0 0 1 .467 1.139h.006z" style="fill:var(--color2, #4d5ae5)"/>
        </symbol>
        <symbol id="icon-astronaut" viewBox="0 0 40 40">
            <path fill="#4d5ae5" d="M39.968 5.655a.666.666 0 0 0-.538-.453l-2.388-.347-1.069-2.164c-.224-.456-.971-.456-1.195 0l-1.069 2.164-2.388.347a.666.666 0 0 0-.37 1.136l1.729 1.685-.408 2.379a.667.667 0 0 0 .968.703l2.136-1.123 2.136 1.123a.672.672 0 0 0 .703-.05.667.667 0 0 0 .265-.652l-.408-2.379 1.729-1.685a.668.668 0 0 0 .168-.683zm-3.079 1.659a.664.664 0 0 0-.191.59l.239 1.393-1.251-.657a.669.669 0 0 0-.622 0l-1.251.657.239-1.393a.67.67 0 0 0-.191-.59l-1.013-.987 1.399-.203a.665.665 0 0 0 .502-.365l.625-1.267.625 1.267a.668.668 0 0 0 .502.365l1.399.203-1.011.987zM32.667 25.653h-1.333v1.333h1.333v-1.333zM32.667 28.319h-1.333v1.333h1.333v-1.333zM34 26.986h-1.333v1.333H34v-1.333zM31.334 26.986h-1.333v1.333h1.333v-1.333zM28 32.986h-1.333v1.333H28v-1.333zM28 35.653h-1.333v1.333H28v-1.333zM29.334 34.32h-1.333v1.333h1.333V34.32zM26.667 34.32h-1.333v1.333h1.333V34.32zM20 30.32h-1.333v1.333H20V30.32zM20 32.986h-1.333v1.333H20v-1.333zM21.333 31.653H20v1.333h1.333v-1.333zM18.667 31.653h-1.333v1.333h1.333v-1.333zM7.333 7.652H6v1.333h1.333V7.652zM7.333 10.319H6v1.333h1.333v-1.333zM8.666 8.986H7.333v1.333h1.333V8.986zM6 8.986H4.667v1.333H6V8.986z" style="fill:var(--color2, #4d5ae5)"/>
            <path fill="#2e2f42" d="M30.893 17.699a2.216 2.216 0 0 0-1.485-.881 2.224 2.224 0 0 0-1.675.44l-1.565 1.2-2.372 1.771-1.697-.676c3.027-1.358 5.142-4.385 5.142-7.9 0-4.779-3.903-8.667-8.701-8.667s-8.701 3.888-8.701 8.667c0 1.732.518 3.343 1.4 4.698l-3.455-.03h-.006c-.011 0-.019.005-.029.006a.65.65 0 0 0-.194.039c-.016.006-.033.009-.048.017-.008.003-.016.004-.024.008l-4.041 1.995-.001.001-2.367 1.138a.52.52 0 0 0-.079.044 2.225 2.225 0 0 0 .572 3.98 2.224 2.224 0 0 0 1.723-.161l1.735-.923 2.83-1.461 1.696-.01-6.802 6.769-.002.001-1.673 1.667c-.395.393-.613.915-.613 1.472s.217 1.079.613 1.473c.406.404.94.607 1.474.607s1.068-.203 1.475-.607l1.643-1.636 2.176-1.625 1.126 1.121-2.202 2.193-.002.001-1.673 1.667c-.395.393-.613.915-.613 1.472s.217 1.079.613 1.473c.406.404.941.607 1.475.607s1.069-.203 1.475-.607l4.352-4.333.001-.002 1.262-1.25-.005-.005c.008-.008.019-.011.027-.019l6.457-7.073 4.339.617a.595.595 0 0 0 .328-.041c.022-.008.041-.019.062-.029.024-.012.049-.019.072-.034l4.017-2.667c.015-.01.023-.026.037-.037.016-.013.036-.018.051-.032l1.589-1.489a2.224 2.224 0 0 0 .265-2.952zm-28.23 4.514a.894.894 0 0 1-.698.065.894.894 0 0 1-.265-1.574l1.642-.79.561 1.641-1.24.659zm4.371-2.285-1.935 1-.549-1.604 2.533-1.251-.049 1.855zm18.875-8.276a7.239 7.239 0 0 1-.749 3.199l-5.227-2.374a2.33 2.33 0 0 0-.985-1.735l1.83-6.075c2.972.945 5.131 3.718 5.131 6.985zm-14.736 0c0-4.043 3.305-7.333 7.368-7.333.316 0 .625.027.931.065l-1.79 5.942c-.024-.001-.047-.007-.071-.007-1.291 0-2.341 1.047-2.341 2.333s1.05 2.333 2.341 2.333c.868 0 1.618-.479 2.023-1.181l4.828 2.193a7.364 7.364 0 0 1-5.921 2.987c-4.063 0-7.368-3.29-7.368-7.334zm7.445 1.001c0 .551-.452 1-1.007 1s-1.007-.449-1.007-1c0-.551.452-1 1.007-1s1.007.449 1.007 1zM3.081 31.433a.76.76 0 0 1-1.068.001.742.742 0 0 1 0-1.056l1.203-1.198 1.064 1.059-1.199 1.193zM7.098 36.1a.76.76 0 0 1-1.069.001.742.742 0 0 1 0-1.056l1.203-1.199 1.065 1.059-1.199 1.194zm4.353-4.336-.002.001-2.206 2.2-1.065-1.059 2.204-2.194v-.001l.002-.001c.05-.05.081-.11.112-.169.009-.017.025-.032.033-.05.021-.051.024-.107.032-.161.004-.031.017-.059.017-.091 0-.045-.016-.088-.025-.132-.008-.04-.008-.081-.023-.119a.66.66 0 0 0-.114-.172c-.013-.015-.017-.033-.031-.047h-.001l-.001-.003-2.009-2c-.021-.021-.049-.03-.073-.048a.605.605 0 0 0-.109-.072.625.625 0 0 0-.117-.041.7.7 0 0 0-.129-.025.59.59 0 0 0-.119.006.636.636 0 0 0-.13.025c-.042.013-.079.034-.118.056-.025.014-.053.019-.076.036l-2.217 1.655-1.126-1.121 2.999-2.983 5.451 5.361-1.159 1.149zm8.523-8.771c-.019-.003-.037.005-.057.003a.68.68 0 0 0-.254.036.699.699 0 0 0-.225.136c-.016.014-.035.021-.05.037l-5.873 6.432-5.41-5.321 3.541-3.523a.667.667 0 0 0-.475-1.138v-.001l-2.773.017.035-2.009 3.88.033a8.687 8.687 0 0 0 6.227 2.626c.547 0 1.08-.057 1.599-.153.05.04.099.081.162.106l3.012 1.2.191.948.223 1.107-3.753-.534zm5.051.222-.391-1.947 1.808-1.35 1.183 1.571-2.6 1.727zm4.692-3.538-1.047.981-1.164-1.545 1.039-.797a.92.92 0 0 1 .679-.179.9.9 0 0 1 .6.355.892.892 0 0 1-.107 1.184z" style="fill:var(--color1, #2e2f42)"/>
            <path fill="#2e2f42" d="m17.003 23.18-2.679-2.667a.667.667 0 0 0-.941 0l-2.678 2.667a.67.67 0 0 0 0 .946l2.678 2.667a.668.668 0 0 0 .941 0l2.679-2.667a.67.67 0 0 0 0-.946zm-3.149 2.199-1.733-1.726 1.733-1.726 1.734 1.726-1.734 1.726zM21.455 6.338l-.322 1.295c.089.022 2.172.565 2.172 2.686h1.333c0-2.521-2.082-3.707-3.183-3.981zM24.639 11.652h-1.333v1.333h1.333v-1.333z" style="fill:var(--color1, #2e2f42)"/>
        </symbol>
        <symbol id="icon-clock" viewBox="0 0 40 40">
            <path fill="#2e2f42" d="M39.121 19.127C39.119 8.562 30.552-.002 19.986 0S.857 8.569.859 19.135a19.131 19.131 0 0 0 13.312 18.22.773.773 0 0 0 .234.036.847.847 0 0 0 .428-.117.797.797 0 0 0 .354-.446l4.831-15.313a2.391 2.391 0 1 0-1.05-4.544l-6.382-6.383a.797.797 0 0 0-1.127 1.127l6.379 6.386a2.344 2.344 0 0 0 .671 2.886l-4.603 14.591C4.809 32.227.151 22.136 3.502 13.038S16.944-.718 26.042 2.634c9.097 3.351 13.755 13.443 10.404 22.54a17.552 17.552 0 0 1-9.328 9.967l-.497-2.343a.797.797 0 0 0-1.311-.43l-4.796 4.282a.797.797 0 0 0 .289 1.356l6.123 1.954a.797.797 0 0 0 1.024-.925l-.489-2.299a19.068 19.068 0 0 0 11.661-17.611zm-19.131-.798a.797.797 0 1 1 0 1.594.797.797 0 0 1 0-1.594zm2.626 18.58 2.73-2.435.754 3.55-3.484-1.115z" style="fill:var(--color1, #2e2f42)"/>
            <path fill="#4d5ae5" d="M19.193 3.981v1.594a.797.797 0 0 0 1.594 0V3.981a.797.797 0 0 0-1.594 0zM4.845 18.329a.797.797 0 0 0 0 1.594h1.594a.797.797 0 0 0 0-1.594H4.845zM35.135 19.924a.797.797 0 0 0 0-1.594h-1.594a.797.797 0 0 0 0 1.594h1.594z" style="fill:var(--color2, #4d5ae5)"/>
        </symbol>
        <symbol id="icon-diagram" viewBox="0 0 40 40">
            <path fill="#4d5ae5" d="M18.657 18.706h1.333v5.997h-1.333v-5.997zM23.987 21.371h1.333v3.332h-1.333v-3.332zM13.326 23.37h1.333v1.333h-1.333V23.37zM9.328 22.704h1.333v1.999H9.328v-1.999z" style="fill:var(--color2, #4d5ae5)"/>
            <path fill="#2e2f42" d="M1.999 35.364h31.983a1.999 1.999 0 0 0 1.999-1.999V30.7a1.999 1.999 0 0 0-1.999-1.999h-.666V12.084l3.785-3.585a2.011 2.011 0 1 0-.933-.953l-2.852 2.703V8.712a1.999 1.999 0 0 0-1.999-1.999H4.664a1.999 1.999 0 0 0-1.999 1.999v19.99h-.666A1.999 1.999 0 0 0 0 30.701v2.665c0 1.104.895 1.999 1.999 1.999zM37.98 6.046a.666.666 0 1 1 0 1.332.666.666 0 0 1 0-1.332zM3.998 8.711c0-.368.298-.666.666-.666h26.653c.368 0 .666.298.666.666v2.798l-1.333 1.266v-2.732a.666.666 0 0 0-.666-.666H5.997a.666.666 0 0 0-.666.666v16.658c0 .368.298.666.666.666h23.987a.666.666 0 0 0 .666-.666V14.608l1.333-1.263V28.7H3.998V8.71zm5.997 8.662a1.999 1.999 0 1 0 1.384 3.436l2.316 1.162a.665.665 0 0 0 .795-.153l4.924-5.539 4.84 3.627c.26.195.622.174.858-.049l4.206-3.985v10.164H6.663V10.711h22.655v3.325L24.604 18.5l-4.881-3.659a.667.667 0 0 0-.898.09l-4.991 5.616-1.866-.933c.014-.08.022-.161.025-.242a1.999 1.999 0 0 0-1.999-1.999zm.666 1.999a.666.666 0 1 1-1.332 0 .666.666 0 0 1 1.332 0zm3.998 10.661h6.663v.666a.666.666 0 0 1-.666.666h-5.331a.666.666 0 0 1-.666-.666v-.666zm-13.326.666c0-.368.298-.666.666-.666h11.327v.666c0 1.104.895 1.999 1.999 1.999h5.331a1.999 1.999 0 0 0 1.999-1.999v-.666h11.327c.368 0 .666.298.666.666v2.665a.666.666 0 0 1-.666.666H1.999a.666.666 0 0 1-.666-.666v-2.665z" style="fill:var(--color1, #2e2f42)"/>
        </symbol>
        <symbol id="icon-logo-1" viewBox="0 0 74 40">
            <path d="M35.795 4.239h-.098c-.15-.009-.3-.013-.45-.016h-.325c-.284 0-.573.007-.86.022a.353.353 0 0 0-.065 0 20.183 20.183 0 0 0-7.511 1.916l-.309.149v15.815l.723-.245c.634-.218 1.31-.414 2.009-.596a24.526 24.526 0 0 1 5.782-.768v2.078c-.258.002-.51.009-.761.022h-.06a23.09 23.09 0 0 0-4.449.683 22.607 22.607 0 0 0-5.3 2.065V5.081a21.213 21.213 0 0 1 5.56-2.261 21.298 21.298 0 0 1 5.24-.676h.305c.365.009.721.025 1.055.051.881.062 1.754.201 2.611.416v2.045a16.13 16.13 0 0 0-2.53-.381l-.052-.004a6.26 6.26 0 0 0-.517-.03zm3.6 2.091c.454.035.923.051 1.399.051a22.456 22.456 0 0 0 5.509-.707 22.686 22.686 0 0 0 5.298-2.067v19.922a21.294 21.294 0 0 1-5.562 2.261c-1.712.44-3.472.667-5.24.674a15.99 15.99 0 0 1-3.975-.469V5.944c.307.071.623.136.945.191.528.089 1.084.154 1.626.194zm10.139.154-.723.243c-.665.223-1.335.423-2.009.601a24.474 24.474 0 0 1-6.004.77c-.472 0-.905-.013-1.324-.04l-.576-.038v16.269l.495.044c.459.04.932.06 1.409.06a19.206 19.206 0 0 0 4.729-.612 19.815 19.815 0 0 0 3.695-1.328l.309-.149V6.483zM25.526 32.295a1.059 1.059 0 0 0-.804-.325 1.188 1.188 0 0 0-.464.087 1.047 1.047 0 0 0-.594.601 1.17 1.17 0 0 0-.083.449v2.71c-.006.191.03.381.107.556.064.139.156.263.271.363a.96.96 0 0 0 .372.193 1.5 1.5 0 0 0 .405.056 1.128 1.128 0 0 0 1.035-.708c.058-.137.087-.284.087-.432v-.303h-.708v.242a.627.627 0 0 1-.042.242.43.43 0 0 1-.103.153.5.5 0 0 1-.296.103.361.361 0 0 1-.333-.146.643.643 0 0 1-.094-.363v-2.527a.86.86 0 0 1 .087-.405.36.36 0 0 1 .347-.164.37.37 0 0 1 .316.152.572.572 0 0 1 .117.363v.234h.701v-.276a1.28 1.28 0 0 0-.087-.474 1.101 1.101 0 0 0-.237-.381zM29.735 32.264a1.261 1.261 0 0 0-.806-.298 1.25 1.25 0 0 0-.423.076 1.128 1.128 0 0 0-.649.602 1.281 1.281 0 0 0-.103.525v2.599c-.005.183.03.364.103.532.064.14.158.264.275.363a1.1 1.1 0 0 0 .374.229 1.226 1.226 0 0 0 .846 0c.141-.051.271-.129.383-.229a1.1 1.1 0 0 0 .267-.363c.073-.168.108-.349.103-.532v-2.599a1.19 1.19 0 0 0-.37-.905zm-.331 3.503a.473.473 0 0 1-.141.376.522.522 0 0 1-.666 0 .46.46 0 0 1-.141-.376v-2.599a.473.473 0 0 1 .141-.376.52.52 0 0 1 .666 0 .46.46 0 0 1 .141.376v2.599zM35.262 36.928v-4.921h-.681l-.894 2.605h-.013l-.902-2.605h-.674v4.921h.703v-2.993h.013l.688 2.116h.351l.694-2.116h.013v2.993h.703zM39.256 32.353a.978.978 0 0 0-.398-.269 1.547 1.547 0 0 0-.51-.076h-1.044v4.921h.701v-1.922h.361c.219.01.436-.036.632-.134.159-.089.292-.218.385-.376.081-.131.136-.277.161-.429.028-.185.04-.372.038-.559a2.774 2.774 0 0 0-.069-.703 1.055 1.055 0 0 0-.258-.452zm-.362 1.5a.618.618 0 0 1-.065.256.387.387 0 0 1-.181.172.724.724 0 0 1-.331.062h-.32V32.67h.361a.675.675 0 0 1 .316.062c.072.042.13.105.164.182a.72.72 0 0 1 .061.274v.327c0 .114.007.233 0 .338h-.007zM42.577 32.008h-.575l-1.084 4.921h.701l.206-1.057h.956l.206 1.057h.701l-1.111-4.921zm-.647 3.193.345-1.784h.013l.343 1.784h-.701zM47.107 34.972h-.013l-1.059-2.964h-.674v4.921h.701V33.97h.014l1.071 2.959h.659v-4.921h-.701v2.964zM51.391 32.008l-.564 1.956h-.014l-.564-1.956h-.743l.963 2.841v2.08h.701v-2.08l.963-2.841h-.743zM23.571 38.318h.338v.948h.229v-.948h.336v-.194h-.904v.194zM26.412 38.123l-.443 1.142h.244l.094-.26h.455l.098.26h.249l-.454-1.142h-.244zm-.036.69.155-.423.155.423h-.311zM29.22 38.844h.264v.147a.433.433 0 0 1-.271.096.296.296 0 0 1-.242-.109.479.479 0 0 1-.085-.298c0-.254.11-.381.329-.381.058-.006.115.009.163.043s.081.083.096.139l.226-.044c-.049-.223-.21-.336-.484-.336a.574.574 0 0 0-.399.147.569.569 0 0 0-.165.439.628.628 0 0 0 .146.429.552.552 0 0 0 .434.167.684.684 0 0 0 .484-.182v-.45h-.495v.193zM32.088 38.123h-.231v1.142h.8v-.194h-.569v-.948zM34.513 38.123h-.231v1.142h.231v-1.142zM36.883 38.886l-.468-.763h-.224v1.142h.215v-.746l.459.746h.229v-1.142h-.211v.763zM39.026 38.763h.569v-.194h-.569v-.251h.613v-.194h-.844v1.142h.867v-.194h-.636v-.309zM44.223 38.574h-.45v-.451h-.229v1.142h.229v-.499h.45v.499h.229v-1.142h-.229v.451zM46.379 38.763h.571v-.194h-.571v-.251h.614v-.194h-.844v1.142h.866v-.194h-.636v-.309zM49.302 38.763c.199-.031.3-.136.3-.318a.268.268 0 0 0-.112-.255.644.644 0 0 0-.334-.067h-.484v1.143h.229v-.478h.045a.318.318 0 0 1 .143.025.233.233 0 0 1 .081.084l.249.363h.275l-.139-.223a.79.79 0 0 0-.253-.274zm-.231-.158h-.17v-.287h.181a.612.612 0 0 1 .233.027.15.15 0 0 1-.01.233.654.654 0 0 1-.233.027zM51.507 38.763h.569v-.194h-.569v-.251h.614v-.194h-.846v1.142h.867v-.194h-.636v-.309z"/>
        </symbol>
        <symbol id="icon-logo-2" viewBox="0 0 74 40">
            <path d="M26.293 35.159a.092.092 0 0 1 .061.023l.158.148c-.122.12-.274.216-.444.281a1.755 1.755 0 0 1-.629.101 1.703 1.703 0 0 1-.591-.094 1.301 1.301 0 0 1-.446-.266 1.19 1.19 0 0 1-.288-.411 1.354 1.354 0 0 1-.101-.527c-.003-.181.034-.36.108-.529.069-.153.173-.293.306-.411a1.45 1.45 0 0 1 .473-.268c.194-.064.401-.096.609-.094.193-.004.386.025.566.086.156.058.299.138.424.238l-.132.158a.121.121 0 0 1-.034.029.096.096 0 0 1-.053.012.123.123 0 0 1-.057-.017l-.071-.042-.099-.054a1.247 1.247 0 0 0-.132-.052 1.407 1.407 0 0 0-.852.012.92.92 0 0 0-.566.516 1.045 1.045 0 0 0-.081.418c-.002.144.025.288.081.425a.92.92 0 0 0 .219.315.89.89 0 0 0 .327.195c.129.046.267.069.406.067.081.001.161-.004.241-.014a.967.967 0 0 0 .521-.217.129.129 0 0 1 .075-.027zM30.847 34.414a1.29 1.29 0 0 1-.106.524c-.064.152-.166.291-.297.407s-.29.207-.466.267a1.949 1.949 0 0 1-1.199 0 1.383 1.383 0 0 1-.463-.268 1.207 1.207 0 0 1-.3-.411 1.347 1.347 0 0 1 0-1.05c.067-.153.169-.293.3-.413.132-.112.29-.2.463-.258a1.92 1.92 0 0 1 1.199 0c.175.061.334.152.465.268a1.205 1.205 0 0 1 .404.933zm-.414 0a1.092 1.092 0 0 0-.075-.421.862.862 0 0 0-.211-.315.939.939 0 0 0-.333-.199 1.409 1.409 0 0 0-.871 0 .924.924 0 0 0-.333.199.847.847 0 0 0-.213.315c-.1.274-.1.568 0 .842a.847.847 0 0 0 .213.315.943.943 0 0 0 .333.197c.281.09.59.09.871 0a.934.934 0 0 0 .333-.197.883.883 0 0 0 .211-.315c.053-.136.078-.278.075-.421zM33.955 34.856l.041.094.045-.094a.84.84 0 0 1 .051-.093l1.008-1.565c.02-.027.038-.044.057-.049a.258.258 0 0 1 .083-.008h.298v2.545h-.353v-1.95a.646.646 0 0 1 0-.088l-1.013 1.587c-.013.024-.033.044-.059.058s-.056.021-.087.021h-.057c-.031 0-.061-.007-.087-.021s-.046-.034-.059-.058l-1.043-1.597v2.043h-.341v-2.54h.298a.29.29 0 0 1 .083.008.11.11 0 0 1 .055.049l1.029 1.567c.02.029.037.059.051.091zM37.746 34.73v.953h-.394v-2.542h.879c.166-.003.331.016.491.056a.99.99 0 0 1 .347.158.653.653 0 0 1 .197.249.752.752 0 0 1 .067.325.714.714 0 0 1-.286.579 1.03 1.03 0 0 1-.349.169 1.686 1.686 0 0 1-.475.059l-.477-.007zm0-.273h.477c.104.001.207-.012.306-.039a.682.682 0 0 0 .221-.109.487.487 0 0 0 .181-.382c.005-.071-.009-.141-.039-.207s-.078-.125-.138-.174a.853.853 0 0 0-.53-.136h-.477v1.048zM43.046 35.687h-.312a.147.147 0 0 1-.087-.024.16.16 0 0 1-.051-.059l-.268-.615h-1.347l-.278.615a.134.134 0 0 1-.049.057.152.152 0 0 1-.089.025h-.312l1.183-2.546h.41l1.199 2.546zm-1.952-.946h1.112l-.469-1.036a1.641 1.641 0 0 1-.089-.239l-.045.133a1.62 1.62 0 0 1-.043.108l-.465 1.034zM44.75 33.153a.16.16 0 0 1 .059.046l1.725 1.919v-1.976h.353v2.546h-.197a.186.186 0 0 1-.081-.015.212.212 0 0 1-.063-.047l-1.723-1.917a.646.646 0 0 1 0 .088V35.689h-.353v-2.546h.209a.19.19 0 0 1 .071.012zM49.793 34.674v1.011h-.394v-1.011l-1.09-1.533h.353a.146.146 0 0 1 .085.022.238.238 0 0 1 .053.057l.682.989c.028.042.051.081.071.118s.036.072.049.108l.051-.109a.895.895 0 0 1 .067-.116l.672-.996a.26.26 0 0 1 .051-.054.138.138 0 0 1 .085-.025h.357l-1.092 1.54zM33.759 28.869c.171.019.345.034.521.047 2.66-1.017 4.911-2.681 6.471-4.785s2.359-4.553 2.298-7.043l-2.932-2.505c.596 2.651.317 5.391-.805 7.914s-3.045 4.729-5.551 6.372z"/>
            <path d="m32.713 28.753.079.014c2.679-1.637 4.721-3.923 5.862-6.562s1.33-5.51.542-8.242l-4.176-3.568c1.689 2.933 2.369 6.215 1.961 9.465s-1.888 6.334-4.267 8.894zM46.875 20.03c-.709 2.735-2.433 5.202-4.913 7.035a15.778 15.778 0 0 1-2.334 1.432c2.02-.507 3.877-1.404 5.427-2.622s2.753-2.723 3.514-4.4l-1.694-1.445z"/>
            <path d="m46.211 19.627-2.411-2.06c-.046 2.349-.828 4.644-2.264 6.648s-3.474 3.642-5.901 4.745h.012c.541 0 1.081-.028 1.619-.083 2.269-.791 4.273-2.05 5.834-3.664s2.63-3.533 3.111-5.586zM33.061 8.89l-2.877-2.461c-2.572.849-4.783 2.342-6.346 4.282s-2.402 4.239-2.411 6.595c.01 2.603 1.035 5.129 2.914 7.177s4.504 3.504 7.459 4.135c2.638-2.746 4.183-6.14 4.41-9.688s-.877-7.065-3.15-10.04zM52.857 19.248c-.01-3.088-1.451-6.047-4.007-8.231s-6.019-3.414-9.634-3.423a15.562 15.562 0 0 0-4.884.777L51.945 23.42c.603-1.33.912-2.744.911-4.171z"/>
        </symbol>
        <symbol id="icon-logo-3" viewBox="0 0 74 40">
            <path d="M17.199 15.37h-.002c-1.704 0-3.085 1.246-3.085 2.782v.002c0 1.536 1.381 2.782 3.085 2.782h.002c1.704 0 3.085-1.245 3.085-2.782v-.002c0-1.536-1.381-2.782-3.085-2.782zM39.972 14.481c-.005-2.134-.947-4.179-2.62-5.688s-3.942-2.359-6.308-2.364c-2.367.004-4.637.853-6.311 2.363s-2.617 3.555-2.622 5.69v11.767s17.86-1.793 17.862-11.766v-.002zM7.857 30.11c.004 1.485.66 2.908 1.824 3.958s2.742 1.642 4.389 1.646c1.646-.004 3.224-.596 4.388-1.646s1.82-2.472 1.825-3.957v-8.188S7.856 23.172 7.856 30.109zm6.214 1.467c-.322 0-.636-.086-.904-.247s-.476-.39-.599-.658-.155-.563-.093-.848c.063-.285.218-.546.445-.751s.517-.345.833-.401c.316-.057.643-.027.94.084s.551.299.73.54a1.347 1.347 0 0 1 .152 1.378 1.46 1.46 0 0 1-.352.478c-.151.137-.331.245-.529.319s-.41.112-.624.112v-.006zM25.435 28.939v3.047h-.628v-3.047h.628zm1.214 1.302v.49h-1.385v-.49h1.385zm.146-1.302v.492h-1.532v-.492h1.532zm2.867 1.453v.144c0 .232-.031.439-.094.624s-.151.341-.266.471a1.148 1.148 0 0 1-.41.295 1.315 1.315 0 0 1-.525.103c-.191 0-.366-.034-.525-.103a1.175 1.175 0 0 1-.41-.295 1.377 1.377 0 0 1-.27-.471 1.92 1.92 0 0 1-.094-.624v-.144c0-.233.031-.441.094-.624a1.37 1.37 0 0 1 .266-.471c.116-.13.253-.229.41-.297.159-.068.334-.103.525-.103.193 0 .368.034.525.103.159.068.296.167.41.297.116.13.205.287.268.471.064.183.096.391.096.624zm-.634.144v-.149c0-.162-.015-.304-.044-.427s-.072-.226-.13-.31a.566.566 0 0 0-.491-.253.569.569 0 0 0-.489.253c-.056.084-.098.187-.128.31s-.044.265-.044.427v.149c0 .16.015.303.044.427a.925.925 0 0 0 .13.312.572.572 0 0 0 .491.255c.106 0 .2-.022.282-.065s.151-.107.207-.19a.99.99 0 0 0 .128-.312c.029-.124.044-.266.044-.427zm2.672.653a.396.396 0 0 0-.025-.146.272.272 0 0 0-.088-.121c-.043-.038-.104-.075-.182-.111s-.179-.074-.303-.113a3.866 3.866 0 0 1-.393-.151 1.59 1.59 0 0 1-.326-.195.877.877 0 0 1-.222-.262.72.72 0 0 1-.079-.345.71.71 0 0 1 .084-.345.798.798 0 0 1 .234-.268c.1-.075.219-.133.356-.174.138-.041.289-.061.454-.061.225 0 .421.041.588.121s.297.192.389.333c.093.141.14.302.14.483h-.624a.476.476 0 0 0-.056-.234.383.383 0 0 0-.167-.161.596.596 0 0 0-.28-.059.658.658 0 0 0-.272.05.357.357 0 0 0-.163.132.326.326 0 0 0-.054.184c0 .052.013.098.038.14.026.042.066.081.117.117s.115.071.19.103.162.063.262.094c.166.05.312.107.437.169.127.063.233.133.318.211s.149.167.193.266a.837.837 0 0 1 .065.337c0 .133-.026.251-.077.356s-.126.193-.224.266c-.098.073-.214.128-.349.165s-.287.056-.454.056c-.151 0-.299-.019-.446-.059a1.348 1.348 0 0 1-.4-.182.882.882 0 0 1-.392-.756h.63c0 .095.015.175.044.241s.07.119.124.159c.054.04.119.07.192.088.075.018.158.027.247.027a.665.665 0 0 0 .268-.046.328.328 0 0 0 .209-.312zm2.417-2.25v3.047h-.626v-3.047h.626zm.938 0v.492h-2.486v-.492h2.486zm2.402 2.557v.49h-1.622v-.49h1.622zm-1.417-2.557v3.047h-.628v-3.047h.628zm1.206 1.241v.477h-1.41v-.477h1.41zm.209-1.241v.492h-1.62v-.492h1.62zm.368 0h1.136c.233 0 .433.035.601.105.169.07.299.173.389.31s.136.305.136.504a.97.97 0 0 1-.084.421.785.785 0 0 1-.232.291 1.206 1.206 0 0 1-.349.184l-.199.105h-.988l-.004-.49h.734c.11 0 .202-.02.274-.059s.127-.094.163-.163a.501.501 0 0 0 .056-.243c0-.098-.018-.182-.054-.253s-.091-.126-.165-.163-.167-.056-.278-.056h-.509v2.555h-.628V28.94zm1.704 3.047-.695-1.358.663-.004.703 1.333v.029h-.672zm3.296-1.086h-.776v-.49h.776c.12 0 .218-.02.293-.059.075-.041.13-.096.165-.167s.052-.151.052-.241c0-.091-.017-.175-.052-.253s-.09-.141-.165-.188-.173-.071-.293-.071h-.559v2.555h-.628v-3.047h1.187c.239 0 .443.043.613.13.172.085.303.203.393.354s.136.323.136.517c0 .197-.045.367-.136.511s-.222.255-.393.333c-.17.078-.375.117-.613.117zm3.62.596v.49h-1.622v-.49h1.622zm-1.417-2.557v3.047h-.628v-3.047h.628zm1.205 1.241v.477h-1.41v-.477h1.41zm.21-1.241v.492h-1.62v-.492h1.62zm1.772 0v3.047h-.626v-3.047h.626zm.938 0v.492h-2.486v-.492h2.486zm2.402 2.557v.49h-1.622v-.49h1.622zm-1.417-2.557v3.047h-.628v-3.047h.628zm1.206 1.241v.477h-1.41v-.477h1.41zm.209-1.241v.492h-1.62v-.492h1.62zm.368 0h1.136c.233 0 .433.035.601.105.169.07.299.173.389.31s.136.305.136.504a.97.97 0 0 1-.084.421.785.785 0 0 1-.232.291 1.206 1.206 0 0 1-.349.184l-.199.105h-.988l-.004-.49h.734c.11 0 .202-.02.274-.059s.127-.094.163-.163a.501.501 0 0 0 .056-.243c0-.098-.018-.182-.054-.253s-.091-.126-.165-.163a.607.607 0 0 0-.278-.056h-.509v2.555h-.628V28.94zm1.704 3.047-.695-1.358.663-.004.703 1.333v.029h-.672zm2.628-.797a.396.396 0 0 0-.025-.146.272.272 0 0 0-.088-.121c-.043-.038-.104-.075-.182-.111s-.179-.074-.303-.113a3.866 3.866 0 0 1-.393-.151 1.59 1.59 0 0 1-.326-.195.877.877 0 0 1-.222-.262.72.72 0 0 1-.079-.345.71.71 0 0 1 .084-.345.798.798 0 0 1 .234-.268c.1-.075.219-.133.356-.174.138-.041.289-.061.454-.061.225 0 .421.041.588.121s.297.192.389.333c.093.141.14.302.14.483h-.624a.476.476 0 0 0-.056-.234.383.383 0 0 0-.167-.161.596.596 0 0 0-.28-.059.658.658 0 0 0-.272.05.357.357 0 0 0-.163.132.326.326 0 0 0-.054.184c0 .052.013.098.038.14.026.042.066.081.117.117s.115.071.19.103.163.063.262.094c.166.05.312.107.437.169.127.063.233.133.318.211s.149.167.193.266a.837.837 0 0 1 .065.337c0 .133-.026.251-.077.356s-.126.193-.224.266c-.098.073-.214.128-.349.165s-.287.056-.454.056c-.151 0-.299-.019-.446-.059a1.348 1.348 0 0 1-.4-.182.882.882 0 0 1-.392-.756h.63c0 .095.015.175.044.241s.07.119.124.159c.054.04.119.07.193.088.075.018.158.027.247.027a.665.665 0 0 0 .268-.046.333.333 0 0 0 .157-.128.332.332 0 0 0 .052-.184z"/>
        </symbol>
        <symbol id="icon-logo-4" viewBox="0 0 74 40">
            <path d="M19.137 31.695c.175.195.269.44.264.691.009.164-.023.327-.094.478s-.178.286-.315.395a1.913 1.913 0 0 1-1.189.319h-2.089v-4.38h2.046c.404-.024.805.079 1.134.291.132.1.237.225.306.368s.1.297.091.452a.946.946 0 0 1-.238.67 1.13 1.13 0 0 1-.623.342c.277.046.527.178.706.374zm-2.451-.661h.875a.891.891 0 0 0 .556-.146c.066-.054.117-.12.149-.194s.046-.154.038-.234c.006-.079-.007-.159-.039-.233s-.082-.141-.146-.195a.915.915 0 0 0-.573-.148h-.861v1.149zm1.517 1.68c.07-.055.125-.124.161-.201s.051-.161.046-.244c.005-.084-.011-.169-.048-.247s-.093-.147-.164-.202a.977.977 0 0 0-.594-.158h-.918v1.205h.929a.999.999 0 0 0 .587-.152zM23.321 33.578l-1.139-1.712h-.428v1.712h-.979v-4.38h1.854c.467-.029.929.104 1.291.372.259.238.415.551.441.883s-.082.662-.303.929a1.554 1.554 0 0 1-.884.445l1.212 1.75h-1.065zm-1.567-2.309h.801c.556 0 .834-.221.834-.663.006-.09-.01-.181-.045-.265s-.09-.162-.16-.227a.936.936 0 0 0-.63-.178h-.811l.009 1.333zM28.673 32.697h-1.951l-.345.882H25.35l1.792-4.331h1.11l1.785 4.331H29.01l-.337-.882zm-.261-.664-.713-1.849-.713 1.849h1.426zM35.374 33.578h-.972l-2.18-2.979v2.979h-.97v-4.38h.97l2.18 2.996v-2.996h.972v4.38zM40.922 32.53c-.201.331-.507.6-.879.772a3.14 3.14 0 0 1-1.367.276h-1.73v-4.38h1.73c.473-.011.942.081 1.367.27.372.169.679.435.879.764.2.356.304.75.304 1.149s-.104.793-.304 1.149zm-1.113-.105c.277-.291.43-.662.43-1.045s-.153-.754-.43-1.045a1.809 1.809 0 0 0-1.217-.372h-.675v2.835h.675c.444.025.882-.109 1.217-.372zM29.282 4.833S41.83 9.098 41.564 15.269v10.438S29.026 21.44 29.287 15.269l-.005-10.436zM52.742 23.264c2.37-1.468 5.111-2.378 7.972-2.645v-3.268c-3.297 1.144-6.094 3.218-7.972 5.912z"/>
            <path d="M51.318 24.248c1.94-3.516 5.302-6.229 9.396-7.582V7.251s-17.87 6.075-17.492 14.863v14.861s.796-.272 2.049-.781c0-.475 0-.954.057-1.436.37-4.08 2.524-7.861 5.99-10.511z"/>
            <path d="M49.619 29.769a13.97 13.97 0 0 1 .625-3.043c-2.158 2.289-3.465 5.129-3.736 8.121-.026.282-.04.565-.048.856a53.911 53.911 0 0 0 3.437-1.631 13.87 13.87 0 0 1-.278-4.303zM50.329 29.823a13.251 13.251 0 0 0 .221 3.897c4.882-2.63 10.368-6.694 10.157-11.604v-.428c-3.488.351-6.752 1.724-9.289 3.907a13.453 13.453 0 0 0-1.089 4.228z"/>
        </symbol>
        <symbol id="icon-logo-5" viewBox="0 0 74 40">
            <path d="M38.235 19.602a2.11 2.11 0 0 1-.433-1.423v-2.063c0-.632.144-1.113.43-1.442s.78-.492 1.479-.491c.657 0 1.123.14 1.398.42.301.357.447.794.413 1.234v.485h-1.175v-.491a2.507 2.507 0 0 0-.034-.481.463.463 0 0 0-.168-.285.677.677 0 0 0-.426-.111.718.718 0 0 0-.447.117.552.552 0 0 0-.195.315 2.362 2.362 0 0 0-.046.51V18.4c-.019.241.033.483.151.703.058.074.14.133.234.17s.2.051.303.039c.151.011.3-.03.416-.113a.503.503 0 0 0 .175-.304c.027-.166.04-.334.036-.502v-.508h1.175v.464a1.89 1.89 0 0 1-.406 1.297c-.27.306-.73.46-1.406.46s-1.187-.164-1.476-.504zM43.126 19.623c-.297-.321-.445-.789-.445-1.408v-2.17c0-.613.148-1.077.445-1.391s.793-.471 1.488-.47c.691 0 1.184.157 1.481.47.297.315.447.779.447 1.391v2.17c0 .613-.151 1.083-.452 1.406s-.793.485-1.476.485-1.189-.164-1.488-.483zm2.035-.52c.106-.201.155-.421.141-.642v-2.657a1.176 1.176 0 0 0-.139-.63c-.06-.076-.143-.136-.24-.173s-.204-.05-.31-.037c-.106-.013-.213 0-.311.037s-.181.097-.241.173a1.156 1.156 0 0 0-.141.63v2.669a1.19 1.19 0 0 0 .141.642c.069.068.153.122.248.159a.834.834 0 0 0 .604 0 .728.728 0 0 0 .248-.159v-.013zM47.956 14.247h1.265l.951 4.004.973-4.004h1.231l.124 5.779h-.91l-.097-4.016-.939 4.016h-.73l-.973-4.031-.09 4.031h-.919l.114-5.779zM53.916 14.247h1.97c1.135 0 1.702.547 1.702 1.641 0 1.048-.597 1.571-1.792 1.57h-.671v2.568h-1.216l.007-5.779zm1.683 2.47c.12.013.242.004.358-.028s.222-.084.311-.155a.937.937 0 0 0 .175-.653 1.828 1.828 0 0 0-.058-.525c-.017-.057-.048-.111-.089-.159s-.094-.087-.154-.116a1.246 1.246 0 0 0-.542-.092h-.472v1.727h.472zM59.342 14.247h1.306l1.34 5.779h-1.133l-.265-1.333h-1.165l-.272 1.333h-1.15l1.34-5.779zm1.116 3.777-.455-2.426-.455 2.426h.91zM63.07 14.247h.851l1.629 3.297v-3.297h1.009v5.779h-.81l-1.639-3.441v3.441h-1.043l.002-5.779zM68.924 17.823l-1.355-3.567h1.141l.827 2.291.776-2.291h1.116l-1.338 3.567v2.203h-1.167v-2.203zM40.113 22.553v.302h-.992v2.348h-.416v-2.348h-.997v-.302h2.405zM43.223 25.203h-.321a.14.14 0 0 1-.09-.025.138.138 0 0 1-.054-.061l-.287-.629h-1.376l-.287.629a.166.166 0 0 1-.044.071.148.148 0 0 1-.09.025h-.321l1.216-2.65h.423l1.231 2.64zm-2.014-.984h1.148l-.486-1.079a1.915 1.915 0 0 1-.09-.25l-.046.141-.044.111-.482 1.076zM45.319 24.943c.076.003.152.003.229 0a1.67 1.67 0 0 0 .37-.079c.054-.019.107-.042.163-.065v-.596h-.486c-.012.001-.024-.001-.035-.005s-.022-.009-.03-.016c-.008-.006-.014-.013-.019-.022s-.006-.017-.006-.027v-.204h.944v1.016a1.745 1.745 0 0 1-.513.216 2.198 2.198 0 0 1-.304.055 3.818 3.818 0 0 1-.355.017 1.836 1.836 0 0 1-.613-.099 1.476 1.476 0 0 1-.486-.277 1.286 1.286 0 0 1-.314-.42 1.315 1.315 0 0 1-.112-.55 1.362 1.362 0 0 1 .109-.554c.07-.157.177-.3.314-.42.139-.119.304-.213.486-.275.208-.068.429-.101.652-.099.113 0 .226.008.338.023a1.64 1.64 0 0 1 .532.172c.074.041.145.088.212.139l-.117.164c-.009.015-.023.027-.039.036s-.036.014-.055.014a.16.16 0 0 1-.075-.021 1.81 1.81 0 0 1-.119-.063 1.03 1.03 0 0 0-.163-.071 1.504 1.504 0 0 0-.533-.082c-.16-.001-.32.023-.469.073a1.037 1.037 0 0 0-.357.21.911.911 0 0 0-.226.329 1.236 1.236 0 0 0 0 .884.948.948 0 0 0 .243.334c.1.091.221.162.355.21.155.046.319.064.481.053zM49.196 24.901h1.328v.302H48.79v-2.65h.416l-.01 2.348zM51.905 25.203h-.416v-2.65h.416v2.65zM53.452 22.565a.203.203 0 0 1 .063.048l1.778 1.998a.737.737 0 0 1 0-.094v-1.975h.362v2.661h-.209a.197.197 0 0 1-.09-.015.25.25 0 0 1-.066-.05l-1.775-1.996v2.061h-.348v-2.651h.216c.024 0 .047.004.068.013zM58.717 22.553v.292h-1.474v.875h1.194v.281h-1.194v.904h1.474v.292h-1.902v-2.644h1.902zM15.139 6.185l18.466 4.524v15.854l-18.466-4.522V6.185zm-1.184-1.352v17.978l20.832 5.106V9.941L13.955 4.833z"/>
            <path d="m25.12 36.262-20.834-5.11V13.176l20.834 5.108v17.978z"/>
            <path d="m14.3 5.981 18.225 4.468-7.751 6.69-18.227-4.47L14.3 5.981zm-.345-1.148-9.669 8.343 20.834 5.108 9.667-8.343-20.832-5.108zM26.292 35.251l8.495-7.332-8.495-2.084v9.416z"/>
        </symbol>
        <symbol id="icon-logo" viewBox="0 0 74 40">
            <path d="m27.143 5 5.006 4.769-9.291-.006V32.9h24.286v-8.846l5 4.764V5h-25zm19.78 18.494L32.73 9.972h14.193v13.522zm-4.407 6.022H26.7V13.955h1.118v14.507h14.698v1.054zm-12.662 7.67-.589-1.212h-.486l.854 1.604v.935h.441v-.935l.854-1.604h-.485l-.589 1.212zm2.173-1.212h.105l.959 2.539h-.46l-.205-.595h-.983l-.205.595h-.459l.956-2.539h.293zm-.465 1.598h.743l-.372-1.077-.371 1.077zm3.068-.421a2.775 2.775 0 0 1-.055-.071 1.312 1.312 0 0 1-.152-.249.674.674 0 0 1 .028-.593.548.548 0 0 1 .232-.22.75.75 0 0 1 .351-.079c.129 0 .24.026.333.079a.546.546 0 0 1 .249.703.656.656 0 0 1-.12.181c-.051.055-.11.106-.178.155l-.176.128.503.593a1.025 1.025 0 0 0 .11-.474h.363c0 .123-.012.24-.037.351a1.096 1.096 0 0 1-.185.419l.372.439h-.486l-.148-.174a.973.973 0 0 1-.261.142 1.164 1.164 0 0 1-.394.066c-.169 0-.314-.031-.438-.092s-.219-.146-.286-.255a.698.698 0 0 1-.099-.371c0-.104.021-.194.064-.272a.856.856 0 0 1 .176-.22 2.54 2.54 0 0 1 .235-.187zm.208.255-.053.038a.631.631 0 0 0-.138.145.406.406 0 0 0-.071.227.377.377 0 0 0 .188.347.463.463 0 0 0 .228.052.651.651 0 0 0 .41-.144l-.565-.664zm.101-.463.156-.105a.559.559 0 0 0 .157-.143.32.32 0 0 0 .047-.178.254.254 0 0 0-.267-.244.254.254 0 0 0-.242.15.356.356 0 0 0 .01.31c.027.055.063.112.11.173l.029.037zm4.442.744h-.436a.795.795 0 0 1-.08.281.393.393 0 0 1-.176.173.668.668 0 0 1-.302.059c-.102 0-.19-.02-.263-.061s-.134-.098-.181-.173a.876.876 0 0 1-.105-.267 1.703 1.703 0 0 1-.033-.349v-.214c0-.135.012-.255.037-.359.026-.106.063-.195.113-.267s.112-.127.187-.164a.581.581 0 0 1 .262-.056c.122 0 .221.021.296.063.076.041.133.1.171.178a.824.824 0 0 1 .077.281h.436a1.088 1.088 0 0 0-.143-.452c-.077-.131-.185-.234-.324-.309s-.31-.112-.513-.112c-.159 0-.303.028-.431.084a.915.915 0 0 0-.326.242 1.1 1.1 0 0 0-.209.378 1.6 1.6 0 0 0-.071.495v.211c0 .182.023.348.07.495.048.148.116.274.206.378a.929.929 0 0 0 .323.241c.126.056.267.084.424.084.205 0 .378-.037.521-.112s.254-.176.333-.305a.996.996 0 0 0 .139-.445zm2.422-.373v-.139a1.6 1.6 0 0 0-.077-.514 1.117 1.117 0 0 0-.214-.389.916.916 0 0 0-.333-.246 1.05 1.05 0 0 0-.429-.085 1.06 1.06 0 0 0-.427.085.933.933 0 0 0-.333.246 1.137 1.137 0 0 0-.216.389 1.605 1.605 0 0 0-.077.514v.139c0 .192.026.364.077.516.052.152.126.282.22.389a.957.957 0 0 0 .76.33c.157 0 .3-.028.429-.084a.923.923 0 0 0 .331-.246c.093-.107.164-.237.214-.389s.075-.324.075-.516zm-.438-.143v.143c0 .142-.014.267-.042.377a.817.817 0 0 1-.119.277.516.516 0 0 1-.452.225.579.579 0 0 1-.258-.056.541.541 0 0 1-.195-.169c-.053-.076-.094-.168-.122-.277s-.042-.235-.042-.377v-.143c0-.142.014-.267.042-.375a.823.823 0 0 1 .12-.274.515.515 0 0 1 .194-.167c.076-.038.162-.058.258-.058s.183.019.26.058a.508.508 0 0 1 .194.167.759.759 0 0 1 .12.274c.028.108.042.233.042.375z"/>
        </symbol>
        <symbol id="icon-facebook" viewBox="0 0 40 40">
            <path d="M26.662 6.641h3.652V.281c-.63-.087-2.797-.282-5.32-.282-5.265 0-8.872 3.312-8.872 9.398v5.602h-5.81v7.11h5.81v17.89h7.123V22.111h5.575l.885-7.11h-6.462v-4.898c.002-2.055.555-3.462 3.418-3.462z"/>
        </symbol>
        <symbol id="icon-instagram" viewBox="0 0 40 40">
            <path d="M39.961 11.76c-.094-2.125-.438-3.586-.93-4.853a9.755 9.755 0 0 0-2.313-3.547 9.835 9.835 0 0 0-3.54-2.305c-1.274-.492-2.727-.836-4.853-.93C26.184.023 25.504 0 20.073 0s-6.111.024-8.244.117c-2.125.094-3.587.438-4.852.93A9.759 9.759 0 0 0 3.429 3.36 9.835 9.835 0 0 0 1.124 6.9C.632 8.174.288 9.627.194 11.752c-.102 2.141-.125 2.821-.125 8.252s.024 6.11.117 8.244c.094 2.125.438 3.586.93 4.853a9.859 9.859 0 0 0 2.313 3.547 9.835 9.835 0 0 0 3.54 2.305c1.274.492 2.727.836 4.853.93 2.133.094 2.813.117 8.244.117s6.111-.023 8.244-.117c2.125-.094 3.586-.437 4.852-.93a10.229 10.229 0 0 0 5.853-5.852c.492-1.274.836-2.727.93-4.852.094-2.134.117-2.813.117-8.244s-.008-6.111-.102-8.244zm-3.602 16.331c-.086 1.954-.414 3.009-.688 3.712a6.636 6.636 0 0 1-3.798 3.798c-.703.274-1.766.602-3.712.688-2.11.094-2.742.117-8.079.117s-5.978-.023-8.08-.117c-1.954-.086-3.008-.414-3.712-.688a6.178 6.178 0 0 1-2.297-1.492A6.232 6.232 0 0 1 4.5 31.812c-.274-.703-.602-1.766-.687-3.712-.094-2.11-.117-2.743-.117-8.08s.023-5.978.117-8.08c.086-1.954.414-3.008.687-3.712A6.09 6.09 0 0 1 6.001 5.93a6.21 6.21 0 0 1 2.297-1.492c.703-.274 1.766-.602 3.712-.688 2.11-.094 2.743-.117 8.08-.117 5.345 0 5.978.024 8.08.117 1.954.086 3.009.414 3.712.688.867.32 1.656.828 2.297 1.492a6.213 6.213 0 0 1 1.492 2.298c.274.703.601 1.766.688 3.712.094 2.11.117 2.743.117 8.08s-.024 5.962-.117 8.072z"/>
            <path d="M20.074 9.728c-5.673 0-10.275 4.602-10.275 10.275s4.603 10.275 10.275 10.275c5.673 0 10.275-4.602 10.275-10.275S25.747 9.728 20.074 9.728zm0 16.941c-3.68 0-6.665-2.985-6.665-6.665s2.985-6.665 6.665-6.665a6.666 6.666 0 0 1 0 13.33zM33.155 9.322a2.399 2.399 0 1 1-4.798 0 2.399 2.399 0 0 1 4.798 0z"/>
        </symbol>
        <symbol id="icon-linkedin" viewBox="0 0 40 40">
            <path d="M39.99 40v-.002H40v-14.67c0-7.177-1.545-12.705-9.935-12.705-4.033 0-6.74 2.213-7.845 4.312h-.117v-3.642h-7.955v26.705h8.283V26.775c0-3.482.66-6.848 4.972-6.848 4.249 0 4.312 3.973 4.312 7.072v13.002h8.275zM.66 13.295h8.293V40H.66V13.295zM4.803 0C2.151 0 0 2.152 0 4.803s2.152 4.848 4.803 4.848c2.652 0 4.803-2.197 4.803-4.848A4.806 4.806 0 0 0 4.803 0z"/>
        </symbol>
        <symbol id="icon-twitter" viewBox="0 0 40 40">
            <path d="M40 7.597a17.114 17.114 0 0 1-4.725 1.295 8.156 8.156 0 0 0 3.608-4.532 16.4 16.4 0 0 1-5.2 1.985 8.216 8.216 0 0 0-5.99-2.595c-4.54 0-8.195 3.685-8.195 8.203 0 .65.055 1.275.19 1.87-6.817-.332-12.85-3.6-16.902-8.578A8.261 8.261 0 0 0 1.663 9.39a8.212 8.212 0 0 0 3.642 6.815c-1.317-.025-2.61-.408-3.705-1.01v.09c0 3.985 2.842 7.295 6.57 8.057a8.161 8.161 0 0 1-2.15.27c-.525 0-1.055-.03-1.553-.14 1.062 3.248 4.078 5.635 7.662 5.713a16.473 16.473 0 0 1-10.168 3.497c-.673 0-1.318-.03-1.963-.112 3.633 2.342 7.938 3.68 12.58 3.68 15.09 0 23.34-12.5 23.34-23.335 0-.362-.013-.713-.03-1.06 1.627-1.155 2.995-2.598 4.11-4.258z"/>
        </symbol>
        <symbol id="icon-close-black" viewBox="0 0 40 40">
            <path d="M40 4.029l-4.029-4.029-15.971 15.971-15.971-15.971-4.029 4.029 15.971 15.971-15.971 15.971 4.029 4.029 15.971-15.971 15.971 15.971 4.029-4.029-15.971-15.971 15.971-15.971z"></path>
        </symbol>
        <symbol id="icon-paper-plane" viewBox="0 0 40 40">
            <path d="M40 3.333 0 22.083l12.783 3.945L32.5 10.624 17.503 27.485l.012.004-.015-.004v9.181l7.169-6.969L33.75 32.5 40 3.333z"/>
        </symbol>
        <symbol id="icon-person" viewBox="0 0 40 40">
            <path d="M20 20c3.683 0 6.667-2.983 6.667-6.667s-2.983-6.667-6.667-6.667c-3.683 0-6.667 2.983-6.667 6.667s2.983 6.667 6.667 6.667zM20 23.333c-4.45 0-13.333 2.233-13.333 6.667v1.667c0 0.917 0.75 1.667 1.667 1.667h23.333c0.917 0 1.667-0.75 1.667-1.667v-1.667c0-4.433-8.883-6.667-13.333-6.667z"></path>
        </symbol>
        <symbol id="icon-email" viewBox="0 0 30 40">
            <path d="M25 10h-20c-1.375 0-2.488 1.125-2.488 2.5l-0.013 15c0 1.375 1.125 2.5 2.5 2.5h20c1.375 0 2.5-1.125 2.5-2.5v-15c0-1.375-1.125-2.5-2.5-2.5zM24.5 15.313l-8.837 5.525c-0.4 0.25-0.925 0.25-1.325 0l-8.838-5.525c-0.313-0.2-0.5-0.537-0.5-0.9 0-0.838 0.913-1.338 1.625-0.9l8.375 5.237 8.375-5.238c0.712-0.438 1.625 0.063 1.625 0.9 0 0.362-0.188 0.7-0.5 0.9z"></path>
        </symbol>
        <symbol id="icon-phone" viewBox="0 0 30 40">
            <path d="M24.544 23.109l-3.064-0.35c-0.736-0.084-1.459 0.169-1.978 0.688l-2.219 2.219c-3.413-1.737-6.212-4.523-7.948-7.948l2.231-2.231c0.519-0.519 0.772-1.242 0.688-1.978l-0.35-3.039c-0.145-1.218-1.17-2.135-2.4-2.135h-2.087c-1.363 0-2.497 1.134-2.412 2.497 0.639 10.3 8.877 18.526 19.165 19.165 1.363 0.084 2.497-1.049 2.497-2.412v-2.087c0.012-1.218-0.904-2.243-2.123-2.388z"></path>
        </symbol>
        <symbol id="icon-check" viewBox="0 0 50 40">
            <path fill="#f4f4fd" style="fill: var(--color1, #f4f4fd)" d="M42.228 1.275c0.864-0.827 2.014-1.284 3.207-1.275s2.336 0.484 3.187 1.324c0.851 0.84 1.345 1.98 1.377 3.179s-0.401 2.363-1.208 3.247l-24.473 30.772c-0.421 0.456-0.929 0.821-1.493 1.075s-1.174 0.391-1.793 0.402c-0.618 0.011-1.233-0.102-1.806-0.335s-1.095-0.579-1.532-1.019l-16.229-16.317c-0.452-0.423-0.814-0.934-1.066-1.501s-0.387-1.18-0.398-1.801 0.103-1.238 0.334-1.814c0.231-0.576 0.576-1.099 1.013-1.538s0.957-0.785 1.53-1.018 1.186-0.347 1.804-0.336c0.618 0.011 1.227 0.147 1.791 0.4s1.072 0.617 1.493 1.072l12.844 12.907 21.302-27.287c0.038-0.047 0.079-0.093 0.123-0.136h-0.006z"></path>
        </symbol>
    </defs>
</svg>